<svg width="30" height="30" viewBox="0 0 30 30" fill="none" xmlns="http://www.w3.org/2000/svg">
<g clip-path="url(#clip0)">
<path d="M0 15C0 6.71573 6.71573 0 15 0V0C23.2843 0 30 6.71573 30 15V15C30 23.2843 23.2843 30 15 30V30C6.71573 30 0 23.2843 0 15V15Z" fill="url(#paint0_linear)"/>
<path d="M24.1997 24.3C24.933 25.7 25.2997 30.8 25.2997 30.8H4.69971C4.69971 30.8 5.06641 25.7 5.79971 24.3C6.89971 22.2 14.9997 19.5 14.9997 19.5C14.9997 19.5 23.0997 22.2 24.1997 24.3Z" fill="url(#paint1_linear)"/>
<path opacity="0.4" d="M24.3999 29.9C24.3999 29.7814 24.4351 29.6654 24.501 29.5667C24.567 29.468 24.6607 29.3911 24.7703 29.3457C24.8799 29.3003 25.0006 29.2884 25.117 29.3116C25.2334 29.3347 25.3403 29.3919 25.4242 29.4758C25.5081 29.5597 25.5652 29.6666 25.5884 29.783C25.6115 29.8994 25.5996 30.02 25.5542 30.1297C25.5088 30.2393 25.4319 30.333 25.3332 30.3989C25.2346 30.4649 25.1186 30.5 24.9999 30.5C24.8408 30.5 24.6882 30.4368 24.5756 30.3243C24.4631 30.2118 24.3999 30.0592 24.3999 29.9V29.9ZM20.3999 29.9C20.3999 29.7814 20.4351 29.6654 20.501 29.5667C20.567 29.468 20.6607 29.3911 20.7703 29.3457C20.8799 29.3003 21.0006 29.2884 21.117 29.3116C21.2333 29.3347 21.3403 29.3919 21.4242 29.4758C21.5081 29.5597 21.5652 29.6666 21.5884 29.783C21.6115 29.8994 21.5996 30.02 21.5542 30.1297C21.5088 30.2393 21.4319 30.333 21.3332 30.3989C21.2346 30.4649 21.1186 30.5 20.9999 30.5C20.8408 30.5 20.6882 30.4368 20.5756 30.3243C20.4631 30.2118 20.3999 30.0592 20.3999 29.9ZM16.3999 29.9C16.3999 29.7814 16.4351 29.6654 16.501 29.5667C16.567 29.468 16.6607 29.3911 16.7703 29.3457C16.8799 29.3003 17.0006 29.2884 17.117 29.3116C17.2333 29.3347 17.3403 29.3919 17.4242 29.4758C17.5081 29.5597 17.5652 29.6666 17.5884 29.783C17.6115 29.8994 17.5996 30.02 17.5542 30.1297C17.5088 30.2393 17.4319 30.333 17.3332 30.3989C17.2346 30.4649 17.1186 30.5 16.9999 30.5C16.8408 30.5 16.6882 30.4368 16.5756 30.3243C16.4631 30.2118 16.3999 30.0592 16.3999 29.9ZM12.3999 29.9C12.3999 29.7814 12.4351 29.6654 12.501 29.5667C12.567 29.468 12.6607 29.3911 12.7703 29.3457C12.8799 29.3003 13.0006 29.2884 13.117 29.3116C13.2333 29.3347 13.3403 29.3919 13.4242 29.4758C13.5081 29.5597 13.5652 29.6666 13.5884 29.783C13.6115 29.8994 13.5996 30.02 13.5542 30.1297C13.5088 30.2393 13.4319 30.333 13.3332 30.3989C13.2346 30.4649 13.1186 30.5 12.9999 30.5C12.8408 30.5 12.6882 30.4368 12.5756 30.3243C12.4631 30.2118 12.3999 30.0592 12.3999 29.9ZM8.3999 29.9C8.3999 29.7814 8.43509 29.6654 8.50102 29.5667C8.56695 29.468 8.66066 29.3911 8.77029 29.3457C8.87993 29.3003 9.00057 29.2884 9.11696 29.3116C9.23335 29.3347 9.34026 29.3919 9.42417 29.4758C9.50808 29.5597 9.56522 29.6666 9.58837 29.783C9.61153 29.8994 9.59964 30.02 9.55423 30.1297C9.50882 30.2393 9.43192 30.333 9.33325 30.3989C9.23458 30.4649 9.11857 30.5 8.9999 30.5C8.84077 30.5 8.68816 30.4368 8.57564 30.3243C8.46312 30.2118 8.3999 30.0592 8.3999 29.9ZM4.3999 29.9C4.3999 29.7814 4.43509 29.6654 4.50102 29.5667C4.56695 29.468 4.66066 29.3911 4.77029 29.3457C4.87993 29.3003 5.00057 29.2884 5.11696 29.3116C5.23335 29.3347 5.34026 29.3919 5.42417 29.4758C5.50808 29.5597 5.56522 29.6666 5.58837 29.783C5.61152 29.8994 5.59964 30.02 5.55423 30.1297C5.50882 30.2393 5.43191 30.333 5.33324 30.3989C5.23458 30.4649 5.11857 30.5 4.9999 30.5C4.84077 30.5 4.68816 30.4368 4.57564 30.3243C4.46312 30.2118 4.3999 30.0592 4.3999 29.9V29.9ZM22.3999 27.9C22.3999 27.7814 22.4351 27.6654 22.501 27.5667C22.567 27.468 22.6607 27.3911 22.7703 27.3457C22.8799 27.3003 23.0006 27.2884 23.117 27.3116C23.2334 27.3347 23.3403 27.3919 23.4242 27.4758C23.5081 27.5597 23.5652 27.6666 23.5884 27.783C23.6115 27.8994 23.5996 28.02 23.5542 28.1297C23.5088 28.2393 23.4319 28.333 23.3332 28.3989C23.2346 28.4649 23.1186 28.5 22.9999 28.5C22.8408 28.5 22.6882 28.4368 22.5756 28.3243C22.4631 28.2118 22.3999 28.0592 22.3999 27.9ZM18.3999 27.9C18.3999 27.7814 18.4351 27.6654 18.501 27.5667C18.567 27.468 18.6607 27.3911 18.7703 27.3457C18.8799 27.3003 19.0006 27.2884 19.117 27.3116C19.2333 27.3347 19.3403 27.3919 19.4242 27.4758C19.5081 27.5597 19.5652 27.6666 19.5884 27.783C19.6115 27.8994 19.5996 28.02 19.5542 28.1297C19.5088 28.2393 19.4319 28.333 19.3332 28.3989C19.2346 28.4649 19.1186 28.5 18.9999 28.5C18.8408 28.5 18.6882 28.4368 18.5756 28.3243C18.4631 28.2118 18.3999 28.0592 18.3999 27.9ZM14.3999 27.9C14.3999 27.7814 14.4351 27.6654 14.501 27.5667C14.567 27.468 14.6607 27.3911 14.7703 27.3457C14.8799 27.3003 15.0006 27.2884 15.117 27.3116C15.2333 27.3347 15.3403 27.3919 15.4242 27.4758C15.5081 27.5597 15.5652 27.6666 15.5884 27.783C15.6115 27.8994 15.5996 28.02 15.5542 28.1297C15.5088 28.2393 15.4319 28.333 15.3332 28.3989C15.2346 28.4649 15.1186 28.5 14.9999 28.5C14.8408 28.5 14.6882 28.4368 14.5756 28.3243C14.4631 28.2118 14.3999 28.0592 14.3999 27.9V27.9ZM10.3999 27.9C10.3999 27.7814 10.4351 27.6654 10.501 27.5667C10.567 27.468 10.6607 27.3911 10.7703 27.3457C10.8799 27.3003 11.0006 27.2884 11.117 27.3116C11.2333 27.3347 11.3403 27.3919 11.4242 27.4758C11.5081 27.5597 11.5652 27.6666 11.5884 27.783C11.6115 27.8994 11.5996 28.02 11.5542 28.1297C11.5088 28.2393 11.4319 28.333 11.3332 28.3989C11.2346 28.4649 11.1186 28.5 10.9999 28.5C10.8408 28.5 10.6882 28.4368 10.5756 28.3243C10.4631 28.2118 10.3999 28.0592 10.3999 27.9ZM6.3999 27.9C6.3999 27.7814 6.43509 27.6654 6.50102 27.5667C6.56695 27.468 6.66066 27.3911 6.77029 27.3457C6.87993 27.3003 7.00057 27.2884 7.11696 27.3116C7.23335 27.3347 7.34026 27.3919 7.42417 27.4758C7.50808 27.5597 7.56522 27.6666 7.58837 27.783C7.61153 27.8994 7.59964 28.02 7.55423 28.1297C7.50882 28.2393 7.43191 28.333 7.33325 28.3989C7.23458 28.4649 7.11857 28.5 6.9999 28.5C6.84077 28.5 6.68816 28.4368 6.57564 28.3243C6.46312 28.2118 6.3999 28.0592 6.3999 27.9ZM24.3999 25.9C24.3999 25.7814 24.4351 25.6654 24.501 25.5667C24.567 25.468 24.6607 25.3911 24.7703 25.3457C24.8799 25.3003 25.0006 25.2884 25.117 25.3116C25.2334 25.3347 25.3403 25.3919 25.4242 25.4758C25.5081 25.5597 25.5652 25.6666 25.5884 25.783C25.6115 25.8994 25.5996 26.02 25.5542 26.1297C25.5088 26.2393 25.4319 26.333 25.3332 26.3989C25.2346 26.4649 25.1186 26.5 24.9999 26.5C24.8408 26.5 24.6882 26.4368 24.5756 26.3243C24.4631 26.2118 24.3999 26.0592 24.3999 25.9V25.9ZM20.3999 25.9C20.3999 25.7814 20.4351 25.6654 20.501 25.5667C20.567 25.468 20.6607 25.3911 20.7703 25.3457C20.8799 25.3003 21.0006 25.2884 21.117 25.3116C21.2333 25.3347 21.3403 25.3919 21.4242 25.4758C21.5081 25.5597 21.5652 25.6666 21.5884 25.783C21.6115 25.8994 21.5996 26.02 21.5542 26.1297C21.5088 26.2393 21.4319 26.333 21.3332 26.3989C21.2346 26.4649 21.1186 26.5 20.9999 26.5C20.8408 26.5 20.6882 26.4368 20.5756 26.3243C20.4631 26.2118 20.3999 26.0592 20.3999 25.9ZM16.3999 25.9C16.3999 25.7814 16.4351 25.6654 16.501 25.5667C16.567 25.468 16.6607 25.3911 16.7703 25.3457C16.8799 25.3003 17.0006 25.2884 17.117 25.3116C17.2333 25.3347 17.3403 25.3919 17.4242 25.4758C17.5081 25.5597 17.5652 25.6666 17.5884 25.783C17.6115 25.8994 17.5996 26.02 17.5542 26.1297C17.5088 26.2393 17.4319 26.333 17.3332 26.3989C17.2346 26.4649 17.1186 26.5 16.9999 26.5C16.8408 26.5 16.6882 26.4368 16.5756 26.3243C16.4631 26.2118 16.3999 26.0592 16.3999 25.9ZM12.3999 25.9C12.3999 25.7814 12.4351 25.6654 12.501 25.5667C12.567 25.468 12.6607 25.3911 12.7703 25.3457C12.8799 25.3003 13.0006 25.2884 13.117 25.3116C13.2333 25.3347 13.3403 25.3919 13.4242 25.4758C13.5081 25.5597 13.5652 25.6666 13.5884 25.783C13.6115 25.8994 13.5996 26.02 13.5542 26.1297C13.5088 26.2393 13.4319 26.333 13.3332 26.3989C13.2346 26.4649 13.1186 26.5 12.9999 26.5C12.8408 26.5 12.6882 26.4368 12.5756 26.3243C12.4631 26.2118 12.3999 26.0592 12.3999 25.9ZM8.3999 25.9C8.3999 25.7814 8.43509 25.6654 8.50102 25.5667C8.56695 25.468 8.66066 25.3911 8.77029 25.3457C8.87993 25.3003 9.00057 25.2884 9.11696 25.3116C9.23335 25.3347 9.34026 25.3919 9.42417 25.4758C9.50808 25.5597 9.56522 25.6666 9.58837 25.783C9.61153 25.8994 9.59964 26.02 9.55423 26.1297C9.50882 26.2393 9.43192 26.333 9.33325 26.3989C9.23458 26.4649 9.11857 26.5 8.9999 26.5C8.84077 26.5 8.68816 26.4368 8.57564 26.3243C8.46312 26.2118 8.3999 26.0592 8.3999 25.9ZM4.3999 25.9C4.3999 25.7814 4.43509 25.6654 4.50102 25.5667C4.56695 25.468 4.66066 25.3911 4.77029 25.3457C4.87993 25.3003 5.00057 25.2884 5.11696 25.3116C5.23335 25.3347 5.34026 25.3919 5.42417 25.4758C5.50808 25.5597 5.56522 25.6666 5.58837 25.783C5.61152 25.8994 5.59964 26.02 5.55423 26.1297C5.50882 26.2393 5.43191 26.333 5.33324 26.3989C5.23458 26.4649 5.11857 26.5 4.9999 26.5C4.84077 26.5 4.68816 26.4368 4.57564 26.3243C4.46312 26.2118 4.3999 26.0592 4.3999 25.9V25.9ZM22.3999 23.9C22.3999 23.7814 22.4351 23.6654 22.501 23.5667C22.567 23.468 22.6607 23.3911 22.7703 23.3457C22.8799 23.3003 23.0006 23.2884 23.117 23.3116C23.2334 23.3347 23.3403 23.3919 23.4242 23.4758C23.5081 23.5597 23.5652 23.6666 23.5884 23.783C23.6115 23.8994 23.5996 24.02 23.5542 24.1297C23.5088 24.2393 23.4319 24.333 23.3332 24.3989C23.2346 24.4649 23.1186 24.5 22.9999 24.5C22.8408 24.5 22.6882 24.4368 22.5756 24.3243C22.4631 24.2118 22.3999 24.0592 22.3999 23.9ZM18.3999 23.9C18.3999 23.7814 18.4351 23.6654 18.501 23.5667C18.567 23.468 18.6607 23.3911 18.7703 23.3457C18.8799 23.3003 19.0006 23.2884 19.117 23.3116C19.2333 23.3347 19.3403 23.3919 19.4242 23.4758C19.5081 23.5597 19.5652 23.6666 19.5884 23.783C19.6115 23.8994 19.5996 24.02 19.5542 24.1297C19.5088 24.2393 19.4319 24.333 19.3332 24.3989C19.2346 24.4649 19.1186 24.5 18.9999 24.5C18.8408 24.5 18.6882 24.4368 18.5756 24.3243C18.4631 24.2118 18.3999 24.0592 18.3999 23.9ZM14.3999 23.9C14.3999 23.7814 14.4351 23.6654 14.501 23.5667C14.567 23.468 14.6607 23.3911 14.7703 23.3457C14.8799 23.3003 15.0006 23.2884 15.117 23.3116C15.2333 23.3347 15.3403 23.3919 15.4242 23.4758C15.5081 23.5597 15.5652 23.6666 15.5884 23.783C15.6115 23.8994 15.5996 24.02 15.5542 24.1297C15.5088 24.2393 15.4319 24.333 15.3332 24.3989C15.2346 24.4649 15.1186 24.5 14.9999 24.5C14.8408 24.5 14.6882 24.4368 14.5756 24.3243C14.4631 24.2118 14.3999 24.0592 14.3999 23.9V23.9ZM10.3999 23.9C10.3999 23.7814 10.4351 23.6654 10.501 23.5667C10.567 23.468 10.6607 23.3911 10.7703 23.3457C10.8799 23.3003 11.0006 23.2884 11.117 23.3116C11.2333 23.3347 11.3403 23.3919 11.4242 23.4758C11.5081 23.5597 11.5652 23.6666 11.5884 23.783C11.6115 23.8994 11.5996 24.02 11.5542 24.1297C11.5088 24.2393 11.4319 24.333 11.3332 24.3989C11.2346 24.4649 11.1186 24.5 10.9999 24.5C10.8408 24.5 10.6882 24.4368 10.5756 24.3243C10.4631 24.2118 10.3999 24.0592 10.3999 23.9ZM6.3999 23.9C6.3999 23.7814 6.43509 23.6654 6.50102 23.5667C6.56695 23.468 6.66066 23.3911 6.77029 23.3457C6.87993 23.3003 7.00057 23.2884 7.11696 23.3116C7.23335 23.3347 7.34026 23.3919 7.42417 23.4758C7.50808 23.5597 7.56522 23.6666 7.58837 23.783C7.61153 23.8994 7.59964 24.02 7.55423 24.1297C7.50882 24.2393 7.43191 24.333 7.33325 24.3989C7.23458 24.4649 7.11857 24.5 6.9999 24.5C6.84077 24.5 6.68816 24.4368 6.57564 24.3243C6.46312 24.2118 6.3999 24.0592 6.3999 23.9ZM24.3999 21.9C24.3999 21.7814 24.4351 21.6654 24.501 21.5667C24.567 21.468 24.6607 21.3911 24.7703 21.3457C24.8799 21.3003 25.0006 21.2884 25.117 21.3116C25.2334 21.3347 25.3403 21.3919 25.4242 21.4758C25.5081 21.5597 25.5652 21.6666 25.5884 21.783C25.6115 21.8994 25.5996 22.02 25.5542 22.1297C25.5088 22.2393 25.4319 22.333 25.3332 22.3989C25.2346 22.4649 25.1186 22.5 24.9999 22.5C24.8408 22.5 24.6882 22.4368 24.5756 22.3243C24.4631 22.2118 24.3999 22.0592 24.3999 21.9V21.9ZM20.3999 21.9C20.3999 21.7814 20.4351 21.6654 20.501 21.5667C20.567 21.468 20.6607 21.3911 20.7703 21.3457C20.8799 21.3003 21.0006 21.2884 21.117 21.3116C21.2333 21.3347 21.3403 21.3919 21.4242 21.4758C21.5081 21.5597 21.5652 21.6666 21.5884 21.783C21.6115 21.8994 21.5996 22.02 21.5542 22.1297C21.5088 22.2393 21.4319 22.333 21.3332 22.3989C21.2346 22.4649 21.1186 22.5 20.9999 22.5C20.8408 22.5 20.6882 22.4368 20.5756 22.3243C20.4631 22.2118 20.3999 22.0592 20.3999 21.9V21.9ZM8.3999 21.9C8.3999 21.7814 8.43509 21.6654 8.50102 21.5667C8.56695 21.468 8.66066 21.3911 8.77029 21.3457C8.87993 21.3003 9.00057 21.2884 9.11696 21.3116C9.23335 21.3347 9.34026 21.3919 9.42417 21.4758C9.50808 21.5597 9.56522 21.6666 9.58837 21.783C9.61153 21.8994 9.59964 22.02 9.55423 22.1297C9.50882 22.2393 9.43192 22.333 9.33325 22.3989C9.23458 22.4649 9.11857 22.5 8.9999 22.5C8.84077 22.5 8.68816 22.4368 8.57564 22.3243C8.46312 22.2118 8.3999 22.0592 8.3999 21.9V21.9ZM4.3999 21.9C4.3999 21.7814 4.43509 21.6654 4.50102 21.5667C4.56695 21.468 4.66066 21.3911 4.77029 21.3457C4.87993 21.3003 5.00057 21.2884 5.11696 21.3116C5.23335 21.3347 5.34026 21.3919 5.42417 21.4758C5.50808 21.5597 5.56522 21.6666 5.58837 21.783C5.61152 21.8994 5.59964 22.02 5.55423 22.1297C5.50882 22.2393 5.43191 22.333 5.33324 22.3989C5.23458 22.4649 5.11857 22.5 4.9999 22.5C4.84077 22.5 4.68816 22.4368 4.57564 22.3243C4.46312 22.2118 4.3999 22.0592 4.3999 21.9V21.9Z" fill="#13001E"/>
<path d="M16.0861 5.27004C15.6861 3.52004 17.5828 2.17714 19.5361 3.09904C24.1361 5.27004 21.3997 8.30004 19.6997 8.10004C17.9997 7.90004 16.4861 7.02004 16.0861 5.27004Z" fill="url(#paint2_linear)"/>
<g style="mix-blend-mode:multiply" opacity="0.6">
<path d="M17.7495 5.55005C17.7495 5.55005 21.1495 7.75005 21.9995 6.55005C22.0872 7.05115 21.6839 8.46655 21.0495 8.45005C19.1518 8.40065 17.7495 5.55005 17.7495 5.55005Z" fill="#E0713F"/>
</g>
<path d="M17.1999 16.3C15.0516 17.3321 14.7382 17.2768 9.99987 13.4C2.84987 7.55001 9.59987 2.20001 16.8499 5.05001C24.6999 8.50001 22.07 13.9607 17.1999 16.3Z" fill="url(#paint3_linear)"/>
<path d="M17.4 20.4001C16.6667 21.6001 13.3333 21.6001 12.6 20.4001V18.4001C12.6 18.4001 12.2737 18.4101 12.05 18.4001C9.71085 18.3001 8.92925 14.5374 9.29635 10.7739C9.56515 8.01775 11.9 11.8001 15.7 9.15015C15.55 12.0501 16.8 11.7501 17.35 11.4001C19.85 10.2501 19.8709 14.9643 17.4 14.6001V20.4001Z" fill="url(#paint4_linear)"/>
<path d="M12.6001 18.3996C13.9496 18.2994 15.962 16.8897 15.962 16.8897C15.962 16.8897 14.9993 18.949 12.6002 19.2992L12.6001 18.3996Z" fill="#FFBB94"/>
<path d="M17.3997 20.146V19.5C17.5831 19.5 18.1082 19.9332 18.3783 20.3C19.4459 21.75 18.2617 23.05 17.2959 23.05C16.0773 23.05 15.2697 22.0318 14.9997 21.542C14.7297 22.032 13.9221 23.05 12.7035 23.05C11.7377 23.05 10.5535 21.75 11.6211 20.3C11.8912 19.9332 12.4163 19.5 12.5997 19.5V20.146C12.5997 20.9108 14.2737 21.2648 14.9964 21.2975C15.6805 21.2648 17.3997 20.9108 17.3997 20.146Z" fill="#FFF9F5"/>
<path d="M16.2589 7.14288C14.6589 11.1429 15.5589 13.0929 16.8089 15.4429C18.0589 17.7929 16.5089 19.9929 16.5089 19.9929C16.5089 19.9929 18.3089 18.8429 18.3089 16.2929C18.3089 13.7429 16.5089 12.1429 18.0089 10.0429C19.5089 7.94288 17.8589 3.14288 16.2589 7.14288Z" fill="url(#paint5_linear)"/>
</g>
<defs>
<linearGradient id="paint0_linear" x1="15" y1="0" x2="15" y2="30" gradientUnits="userSpaceOnUse">
<stop stop-color="#1D0024"/>
<stop offset="1" stop-color="#100014"/>
</linearGradient>
<linearGradient id="paint1_linear" x1="14.9997" y1="19.5" x2="14.9997" y2="30.8" gradientUnits="userSpaceOnUse">
<stop stop-color="#806A6A"/>
<stop offset="1" stop-color="#665654"/>
</linearGradient>
<linearGradient id="paint2_linear" x1="19.0518" y1="8.10946" x2="19.0518" y2="2.79956" gradientUnits="userSpaceOnUse">
<stop stop-color="#E6864E"/>
<stop offset="1" stop-color="#E67240"/>
</linearGradient>
<linearGradient id="paint3_linear" x1="14.3943" y1="16.8684" x2="14.3943" y2="4.26074" gradientUnits="userSpaceOnUse">
<stop stop-color="#814A2B"/>
<stop offset="1" stop-color="#974A28"/>
</linearGradient>
<linearGradient id="paint4_linear" x1="14.2245" y1="9.15015" x2="14.2245" y2="21.3001" gradientUnits="userSpaceOnUse">
<stop stop-color="#FFD4B3"/>
<stop offset="1" stop-color="#FFDCC2"/>
</linearGradient>
<linearGradient id="paint5_linear" x1="16.9991" y1="19.9929" x2="16.9991" y2="5.6001" gradientUnits="userSpaceOnUse">
<stop stop-color="#E6864E"/>
<stop offset="1" stop-color="#E57442"/>
</linearGradient>
<clipPath id="clip0">
<path d="M0 15C0 6.71573 6.71573 0 15 0V0C23.2843 0 30 6.71573 30 15V15C30 23.2843 23.2843 30 15 30V30C6.71573 30 0 23.2843 0 15V15Z" fill="white"/>
</clipPath>
</defs>
</svg>
