<svg width="30" height="30" viewBox="0 0 30 30" fill="none" xmlns="http://www.w3.org/2000/svg">
<g clip-path="url(#clip0)">
<path d="M0 15C0 6.71573 6.71573 0 15 0V0C23.2843 0 30 6.71573 30 15V15C30 23.2843 23.2843 30 15 30V30C6.71573 30 0 23.2843 0 15V15Z" fill="url(#paint0_linear)"/>
<path d="M24.2002 24.3C24.9335 25.7 25.3002 30.8 25.3002 30.8H4.7002C4.7002 30.8 5.0669 25.7 5.80019 24.3C6.90019 22.2 15.0002 19.5 15.0002 19.5C15.0002 19.5 23.1002 22.2 24.2002 24.3Z" fill="url(#paint1_linear)"/>
<mask id="mask0" mask-type="alpha" maskUnits="userSpaceOnUse" x="4" y="19" width="22" height="12">
<path d="M24.2002 24.3C24.9335 25.7 25.3002 30.8 25.3002 30.8H4.7002C4.7002 30.8 5.0669 25.7 5.8002 24.3C6.9002 22.2 15.0002 19.5 15.0002 19.5C15.0002 19.5 23.1002 22.2 24.2002 24.3Z" fill="url(#paint2_linear)"/>
</mask>
<g mask="url(#mask0)">
<path d="M24.4004 29.9C24.4004 29.7814 24.4356 29.6654 24.5015 29.5667C24.5674 29.468 24.6611 29.3911 24.7708 29.3457C24.8804 29.3003 25.0011 29.2884 25.1174 29.3116C25.2338 29.3347 25.3407 29.3919 25.4247 29.4758C25.5086 29.5597 25.5657 29.6666 25.5889 29.783C25.612 29.8994 25.6001 30.02 25.5547 30.1296C25.5093 30.2393 25.4324 30.333 25.3337 30.3989C25.2351 30.4648 25.1191 30.5 25.0004 30.5C24.8413 30.5 24.6886 30.4368 24.5761 30.3243C24.4636 30.2118 24.4004 30.0592 24.4004 29.9V29.9ZM20.4004 29.9C20.4004 29.7814 20.4356 29.6654 20.5015 29.5667C20.5674 29.468 20.6611 29.3911 20.7708 29.3457C20.8804 29.3003 21.0011 29.2884 21.1174 29.3116C21.2338 29.3347 21.3407 29.3919 21.4247 29.4758C21.5086 29.5597 21.5657 29.6666 21.5889 29.783C21.612 29.8994 21.6001 30.02 21.5547 30.1296C21.5093 30.2393 21.4324 30.333 21.3337 30.3989C21.2351 30.4648 21.1191 30.5 21.0004 30.5C20.8413 30.5 20.6886 30.4368 20.5761 30.3243C20.4636 30.2118 20.4004 30.0592 20.4004 29.9ZM16.4004 29.9C16.4004 29.7814 16.4356 29.6654 16.5015 29.5667C16.5674 29.468 16.6611 29.3911 16.7708 29.3457C16.8804 29.3003 17.0011 29.2884 17.1174 29.3116C17.2338 29.3347 17.3407 29.3919 17.4247 29.4758C17.5086 29.5597 17.5657 29.6666 17.5889 29.783C17.612 29.8994 17.6001 30.02 17.5547 30.1296C17.5093 30.2393 17.4324 30.333 17.3337 30.3989C17.2351 30.4648 17.1191 30.5 17.0004 30.5C16.8413 30.5 16.6886 30.4368 16.5761 30.3243C16.4636 30.2118 16.4004 30.0592 16.4004 29.9ZM12.4004 29.9C12.4004 29.7814 12.4356 29.6654 12.5015 29.5667C12.5674 29.468 12.6611 29.3911 12.7708 29.3457C12.8804 29.3003 13.0011 29.2884 13.1174 29.3116C13.2338 29.3347 13.3407 29.3919 13.4247 29.4758C13.5086 29.5597 13.5657 29.6666 13.5889 29.783C13.612 29.8994 13.6001 30.02 13.5547 30.1296C13.5093 30.2393 13.4324 30.333 13.3337 30.3989C13.2351 30.4648 13.1191 30.5 13.0004 30.5C12.8413 30.5 12.6886 30.4368 12.5761 30.3243C12.4636 30.2118 12.4004 30.0592 12.4004 29.9ZM8.40039 29.9C8.40039 29.7814 8.43558 29.6654 8.50151 29.5667C8.56744 29.468 8.66114 29.3911 8.77078 29.3457C8.88042 29.3003 9.00106 29.2884 9.11745 29.3116C9.23383 29.3347 9.34074 29.3919 9.42465 29.4758C9.50857 29.5597 9.56571 29.6666 9.58886 29.783C9.61201 29.8994 9.60013 30.02 9.55472 30.1296C9.50931 30.2393 9.4324 30.333 9.33373 30.3989C9.23506 30.4648 9.11906 30.5 9.00039 30.5C8.84126 30.5 8.68865 30.4368 8.57613 30.3243C8.4636 30.2118 8.40039 30.0592 8.40039 29.9ZM4.40039 29.9C4.40039 29.7814 4.43558 29.6654 4.50151 29.5667C4.56744 29.468 4.66114 29.3911 4.77078 29.3457C4.88042 29.3003 5.00106 29.2884 5.11744 29.3116C5.23383 29.3347 5.34074 29.3919 5.42465 29.4758C5.50857 29.5597 5.56571 29.6666 5.58886 29.783C5.61201 29.8994 5.60013 30.02 5.55472 30.1296C5.50931 30.2393 5.4324 30.333 5.33373 30.3989C5.23506 30.4648 5.11906 30.5 5.00039 30.5C4.84126 30.5 4.68865 30.4368 4.57613 30.3243C4.4636 30.2118 4.40039 30.0592 4.40039 29.9V29.9ZM22.4004 27.9C22.4004 27.7814 22.4356 27.6654 22.5015 27.5667C22.5674 27.468 22.6611 27.3911 22.7708 27.3457C22.8804 27.3003 23.0011 27.2884 23.1174 27.3116C23.2338 27.3347 23.3407 27.3919 23.4247 27.4758C23.5086 27.5597 23.5657 27.6666 23.5889 27.783C23.612 27.8994 23.6001 28.02 23.5547 28.1296C23.5093 28.2393 23.4324 28.333 23.3337 28.3989C23.2351 28.4648 23.1191 28.5 23.0004 28.5C22.8413 28.5 22.6886 28.4368 22.5761 28.3243C22.4636 28.2118 22.4004 28.0592 22.4004 27.9ZM18.4004 27.9C18.4004 27.7814 18.4356 27.6654 18.5015 27.5667C18.5674 27.468 18.6611 27.3911 18.7708 27.3457C18.8804 27.3003 19.0011 27.2884 19.1174 27.3116C19.2338 27.3347 19.3407 27.3919 19.4247 27.4758C19.5086 27.5597 19.5657 27.6666 19.5889 27.783C19.612 27.8994 19.6001 28.02 19.5547 28.1296C19.5093 28.2393 19.4324 28.333 19.3337 28.3989C19.2351 28.4648 19.1191 28.5 19.0004 28.5C18.8413 28.5 18.6886 28.4368 18.5761 28.3243C18.4636 28.2118 18.4004 28.0592 18.4004 27.9ZM14.4004 27.9C14.4004 27.7814 14.4356 27.6654 14.5015 27.5667C14.5674 27.468 14.6611 27.3911 14.7708 27.3457C14.8804 27.3003 15.0011 27.2884 15.1174 27.3116C15.2338 27.3347 15.3407 27.3919 15.4247 27.4758C15.5086 27.5597 15.5657 27.6666 15.5889 27.783C15.612 27.8994 15.6001 28.02 15.5547 28.1296C15.5093 28.2393 15.4324 28.333 15.3337 28.3989C15.2351 28.4648 15.1191 28.5 15.0004 28.5C14.8413 28.5 14.6886 28.4368 14.5761 28.3243C14.4636 28.2118 14.4004 28.0592 14.4004 27.9V27.9ZM10.4004 27.9C10.4004 27.7814 10.4356 27.6654 10.5015 27.5667C10.5674 27.468 10.6611 27.3911 10.7708 27.3457C10.8804 27.3003 11.0011 27.2884 11.1174 27.3116C11.2338 27.3347 11.3407 27.3919 11.4247 27.4758C11.5086 27.5597 11.5657 27.6666 11.5889 27.783C11.612 27.8994 11.6001 28.02 11.5547 28.1296C11.5093 28.2393 11.4324 28.333 11.3337 28.3989C11.2351 28.4648 11.1191 28.5 11.0004 28.5C10.8413 28.5 10.6886 28.4368 10.5761 28.3243C10.4636 28.2118 10.4004 28.0592 10.4004 27.9ZM6.40039 27.9C6.40039 27.7814 6.43558 27.6654 6.50151 27.5667C6.56744 27.468 6.66114 27.3911 6.77078 27.3457C6.88042 27.3003 7.00106 27.2884 7.11744 27.3116C7.23383 27.3347 7.34074 27.3919 7.42465 27.4758C7.50857 27.5597 7.56571 27.6666 7.58886 27.783C7.61201 27.8994 7.60013 28.02 7.55472 28.1296C7.50931 28.2393 7.4324 28.333 7.33373 28.3989C7.23506 28.4648 7.11906 28.5 7.00039 28.5C6.84126 28.5 6.68865 28.4368 6.57613 28.3243C6.4636 28.2118 6.40039 28.0592 6.40039 27.9ZM24.4004 25.9C24.4004 25.7814 24.4356 25.6654 24.5015 25.5667C24.5674 25.468 24.6611 25.3911 24.7708 25.3457C24.8804 25.3003 25.0011 25.2884 25.1174 25.3116C25.2338 25.3347 25.3407 25.3919 25.4247 25.4758C25.5086 25.5597 25.5657 25.6666 25.5889 25.783C25.612 25.8994 25.6001 26.02 25.5547 26.1297C25.5093 26.2393 25.4324 26.333 25.3337 26.3989C25.2351 26.4649 25.1191 26.5 25.0004 26.5C24.8413 26.5 24.6886 26.4368 24.5761 26.3243C24.4636 26.2118 24.4004 26.0592 24.4004 25.9V25.9ZM20.4004 25.9C20.4004 25.7814 20.4356 25.6654 20.5015 25.5667C20.5674 25.468 20.6611 25.3911 20.7708 25.3457C20.8804 25.3003 21.0011 25.2884 21.1174 25.3116C21.2338 25.3347 21.3407 25.3919 21.4247 25.4758C21.5086 25.5597 21.5657 25.6666 21.5889 25.783C21.612 25.8994 21.6001 26.02 21.5547 26.1297C21.5093 26.2393 21.4324 26.333 21.3337 26.3989C21.2351 26.4649 21.1191 26.5 21.0004 26.5C20.8413 26.5 20.6886 26.4368 20.5761 26.3243C20.4636 26.2118 20.4004 26.0592 20.4004 25.9ZM16.4004 25.9C16.4004 25.7814 16.4356 25.6654 16.5015 25.5667C16.5674 25.468 16.6611 25.3911 16.7708 25.3457C16.8804 25.3003 17.0011 25.2884 17.1174 25.3116C17.2338 25.3347 17.3407 25.3919 17.4247 25.4758C17.5086 25.5597 17.5657 25.6666 17.5889 25.783C17.612 25.8994 17.6001 26.02 17.5547 26.1297C17.5093 26.2393 17.4324 26.333 17.3337 26.3989C17.2351 26.4649 17.1191 26.5 17.0004 26.5C16.8413 26.5 16.6886 26.4368 16.5761 26.3243C16.4636 26.2118 16.4004 26.0592 16.4004 25.9ZM12.4004 25.9C12.4004 25.7814 12.4356 25.6654 12.5015 25.5667C12.5674 25.468 12.6611 25.3911 12.7708 25.3457C12.8804 25.3003 13.0011 25.2884 13.1174 25.3116C13.2338 25.3347 13.3407 25.3919 13.4247 25.4758C13.5086 25.5597 13.5657 25.6666 13.5889 25.783C13.612 25.8994 13.6001 26.02 13.5547 26.1297C13.5093 26.2393 13.4324 26.333 13.3337 26.3989C13.2351 26.4649 13.1191 26.5 13.0004 26.5C12.8413 26.5 12.6886 26.4368 12.5761 26.3243C12.4636 26.2118 12.4004 26.0592 12.4004 25.9ZM8.40039 25.9C8.40039 25.7814 8.43558 25.6654 8.50151 25.5667C8.56744 25.468 8.66114 25.3911 8.77078 25.3457C8.88042 25.3003 9.00106 25.2884 9.11745 25.3116C9.23383 25.3347 9.34074 25.3919 9.42465 25.4758C9.50857 25.5597 9.56571 25.6666 9.58886 25.783C9.61201 25.8994 9.60013 26.02 9.55472 26.1297C9.50931 26.2393 9.4324 26.333 9.33373 26.3989C9.23506 26.4649 9.11906 26.5 9.00039 26.5C8.84126 26.5 8.68865 26.4368 8.57613 26.3243C8.4636 26.2118 8.40039 26.0592 8.40039 25.9ZM4.40039 25.9C4.40039 25.7814 4.43558 25.6654 4.50151 25.5667C4.56744 25.468 4.66114 25.3911 4.77078 25.3457C4.88042 25.3003 5.00106 25.2884 5.11744 25.3116C5.23383 25.3347 5.34074 25.3919 5.42465 25.4758C5.50857 25.5597 5.56571 25.6666 5.58886 25.783C5.61201 25.8994 5.60013 26.02 5.55472 26.1297C5.50931 26.2393 5.4324 26.333 5.33373 26.3989C5.23506 26.4649 5.11906 26.5 5.00039 26.5C4.84126 26.5 4.68865 26.4368 4.57613 26.3243C4.4636 26.2118 4.40039 26.0592 4.40039 25.9V25.9ZM22.4004 23.9C22.4004 23.7814 22.4356 23.6654 22.5015 23.5667C22.5674 23.468 22.6611 23.3911 22.7708 23.3457C22.8804 23.3003 23.0011 23.2884 23.1174 23.3116C23.2338 23.3347 23.3407 23.3919 23.4247 23.4758C23.5086 23.5597 23.5657 23.6666 23.5889 23.783C23.612 23.8994 23.6001 24.02 23.5547 24.1297C23.5093 24.2393 23.4324 24.333 23.3337 24.3989C23.2351 24.4649 23.1191 24.5 23.0004 24.5C22.8413 24.5 22.6886 24.4368 22.5761 24.3243C22.4636 24.2118 22.4004 24.0592 22.4004 23.9ZM18.4004 23.9C18.4004 23.7814 18.4356 23.6654 18.5015 23.5667C18.5674 23.468 18.6611 23.3911 18.7708 23.3457C18.8804 23.3003 19.0011 23.2884 19.1174 23.3116C19.2338 23.3347 19.3407 23.3919 19.4247 23.4758C19.5086 23.5597 19.5657 23.6666 19.5889 23.783C19.612 23.8994 19.6001 24.02 19.5547 24.1297C19.5093 24.2393 19.4324 24.333 19.3337 24.3989C19.2351 24.4649 19.1191 24.5 19.0004 24.5C18.8413 24.5 18.6886 24.4368 18.5761 24.3243C18.4636 24.2118 18.4004 24.0592 18.4004 23.9ZM14.4004 23.9C14.4004 23.7814 14.4356 23.6654 14.5015 23.5667C14.5674 23.468 14.6611 23.3911 14.7708 23.3457C14.8804 23.3003 15.0011 23.2884 15.1174 23.3116C15.2338 23.3347 15.3407 23.3919 15.4247 23.4758C15.5086 23.5597 15.5657 23.6666 15.5889 23.783C15.612 23.8994 15.6001 24.02 15.5547 24.1297C15.5093 24.2393 15.4324 24.333 15.3337 24.3989C15.2351 24.4649 15.1191 24.5 15.0004 24.5C14.8413 24.5 14.6886 24.4368 14.5761 24.3243C14.4636 24.2118 14.4004 24.0592 14.4004 23.9V23.9ZM10.4004 23.9C10.4004 23.7814 10.4356 23.6654 10.5015 23.5667C10.5674 23.468 10.6611 23.3911 10.7708 23.3457C10.8804 23.3003 11.0011 23.2884 11.1174 23.3116C11.2338 23.3347 11.3407 23.3919 11.4247 23.4758C11.5086 23.5597 11.5657 23.6666 11.5889 23.783C11.612 23.8994 11.6001 24.02 11.5547 24.1297C11.5093 24.2393 11.4324 24.333 11.3337 24.3989C11.2351 24.4649 11.1191 24.5 11.0004 24.5C10.8413 24.5 10.6886 24.4368 10.5761 24.3243C10.4636 24.2118 10.4004 24.0592 10.4004 23.9ZM6.40039 23.9C6.40039 23.7814 6.43558 23.6654 6.50151 23.5667C6.56744 23.468 6.66114 23.3911 6.77078 23.3457C6.88042 23.3003 7.00106 23.2884 7.11744 23.3116C7.23383 23.3347 7.34074 23.3919 7.42465 23.4758C7.50857 23.5597 7.56571 23.6666 7.58886 23.783C7.61201 23.8994 7.60013 24.02 7.55472 24.1297C7.50931 24.2393 7.4324 24.333 7.33373 24.3989C7.23506 24.4649 7.11906 24.5 7.00039 24.5C6.84126 24.5 6.68865 24.4368 6.57613 24.3243C6.4636 24.2118 6.40039 24.0592 6.40039 23.9ZM24.4004 21.9C24.4004 21.7814 24.4356 21.6654 24.5015 21.5667C24.5674 21.468 24.6611 21.3911 24.7708 21.3457C24.8804 21.3003 25.0011 21.2884 25.1174 21.3116C25.2338 21.3347 25.3407 21.3919 25.4247 21.4758C25.5086 21.5597 25.5657 21.6666 25.5889 21.783C25.612 21.8994 25.6001 22.02 25.5547 22.1297C25.5093 22.2393 25.4324 22.333 25.3337 22.3989C25.2351 22.4649 25.1191 22.5 25.0004 22.5C24.8413 22.5 24.6886 22.4368 24.5761 22.3243C24.4636 22.2118 24.4004 22.0592 24.4004 21.9V21.9ZM20.4004 21.9C20.4004 21.7814 20.4356 21.6654 20.5015 21.5667C20.5674 21.468 20.6611 21.3911 20.7708 21.3457C20.8804 21.3003 21.0011 21.2884 21.1174 21.3116C21.2338 21.3347 21.3407 21.3919 21.4247 21.4758C21.5086 21.5597 21.5657 21.6666 21.5889 21.783C21.612 21.8994 21.6001 22.02 21.5547 22.1297C21.5093 22.2393 21.4324 22.333 21.3337 22.3989C21.2351 22.4649 21.1191 22.5 21.0004 22.5C20.8413 22.5 20.6886 22.4368 20.5761 22.3243C20.4636 22.2118 20.4004 22.0592 20.4004 21.9V21.9ZM8.40039 21.9C8.40039 21.7814 8.43558 21.6654 8.50151 21.5667C8.56744 21.468 8.66114 21.3911 8.77078 21.3457C8.88042 21.3003 9.00106 21.2884 9.11745 21.3116C9.23383 21.3347 9.34074 21.3919 9.42465 21.4758C9.50857 21.5597 9.56571 21.6666 9.58886 21.783C9.61201 21.8994 9.60013 22.02 9.55472 22.1297C9.50931 22.2393 9.4324 22.333 9.33373 22.3989C9.23506 22.4649 9.11906 22.5 9.00039 22.5C8.84126 22.5 8.68865 22.4368 8.57613 22.3243C8.4636 22.2118 8.40039 22.0592 8.40039 21.9V21.9ZM4.40039 21.9C4.40039 21.7814 4.43558 21.6654 4.50151 21.5667C4.56744 21.468 4.66114 21.3911 4.77078 21.3457C4.88042 21.3003 5.00106 21.2884 5.11744 21.3116C5.23383 21.3347 5.34074 21.3919 5.42465 21.4758C5.50857 21.5597 5.56571 21.6666 5.58886 21.783C5.61201 21.8994 5.60013 22.02 5.55472 22.1297C5.50931 22.2393 5.4324 22.333 5.33373 22.3989C5.23506 22.4649 5.11906 22.5 5.00039 22.5C4.84126 22.5 4.68865 22.4368 4.57613 22.3243C4.4636 22.2118 4.40039 22.0592 4.40039 21.9V21.9Z" fill="#FFA573"/>
</g>
<path d="M16.0865 5.27004C15.6865 3.52004 17.5832 2.17714 19.5365 3.09904C24.1365 5.27004 21.4001 8.30004 19.7001 8.10004C18.0001 7.90004 16.4865 7.02004 16.0865 5.27004Z" fill="url(#paint3_linear)"/>
<path opacity="0.6" d="M17.75 5.55005C17.75 5.55005 21.15 7.75005 22 6.55005C22.0877 7.05115 21.6844 8.46655 21.05 8.45005C19.1523 8.40065 17.75 5.55005 17.75 5.55005Z" fill="black"/>
<path d="M17.2004 16.3C15.0521 17.3321 14.7387 17.2768 10.0004 13.4C2.85036 7.55001 9.60036 2.20001 16.8504 5.05001C24.7004 8.50001 22.0705 13.9607 17.2004 16.3Z" fill="url(#paint4_linear)"/>
<path d="M17.4004 20.4001C16.6671 21.6001 13.3337 21.6001 12.6004 20.4001V18.4001C12.6004 18.4001 12.2741 18.4101 12.0504 18.4001C9.71134 18.3001 8.92974 14.5374 9.29684 10.7739C9.56564 8.01775 11.9004 11.8001 15.7004 9.15015C15.5504 12.0501 16.8004 11.7501 17.3504 11.4001C19.8504 10.2501 19.8713 14.9643 17.4004 14.6001V20.4001Z" fill="url(#paint5_linear)"/>
<path d="M12.6001 18.3996C13.9496 18.2994 15.962 16.8897 15.962 16.8897C15.962 16.8897 14.9993 18.949 12.6002 19.2992L12.6001 18.3996Z" fill="#DB6F3D"/>
<path d="M17.4002 20.146V19.5C17.5836 19.5 18.1087 19.9332 18.3788 20.3C19.4464 21.75 18.2622 23.05 17.2964 23.05C16.0778 23.05 15.2702 22.0318 15.0002 21.542C14.7302 22.032 13.9226 23.05 12.704 23.05C11.7382 23.05 10.554 21.75 11.6216 20.3C11.8917 19.9332 12.4168 19.5 12.6002 19.5V20.146C12.6002 20.9108 14.2742 21.2648 14.9969 21.2975C15.681 21.2648 17.4002 20.9108 17.4002 20.146Z" fill="white"/>
</g>
<defs>
<linearGradient id="paint0_linear" x1="15" y1="30" x2="15" y2="0" gradientUnits="userSpaceOnUse">
<stop stop-color="#FFC9B3"/>
<stop offset="1" stop-color="#FFD2C2"/>
</linearGradient>
<linearGradient id="paint1_linear" x1="22.9724" y1="29.1276" x2="15.0553" y2="15.6882" gradientUnits="userSpaceOnUse">
<stop stop-color="#E2834C"/>
<stop offset="1" stop-color="#DF6638"/>
</linearGradient>
<linearGradient id="paint2_linear" x1="22.9724" y1="29.1276" x2="15.0553" y2="15.6882" gradientUnits="userSpaceOnUse">
<stop stop-color="#E2834C"/>
<stop offset="1" stop-color="#DF6638"/>
</linearGradient>
<linearGradient id="paint3_linear" x1="19.0523" y1="2.79956" x2="19.0523" y2="8.10946" gradientUnits="userSpaceOnUse">
<stop stop-color="#1D0024"/>
<stop offset="1" stop-color="#100014"/>
</linearGradient>
<linearGradient id="paint4_linear" x1="14.3948" y1="4.26074" x2="14.3948" y2="16.8684" gradientUnits="userSpaceOnUse">
<stop stop-color="#1D0024"/>
<stop offset="1" stop-color="#100014"/>
</linearGradient>
<linearGradient id="paint5_linear" x1="14.225" y1="9.15015" x2="14.225" y2="21.3001" gradientUnits="userSpaceOnUse">
<stop stop-color="#E6864E"/>
<stop offset="1" stop-color="#EB965E"/>
</linearGradient>
<clipPath id="clip0">
<path d="M0 15C0 6.71573 6.71573 0 15 0V0C23.2843 0 30 6.71573 30 15V15C30 23.2843 23.2843 30 15 30V30C6.71573 30 0 23.2843 0 15V15Z" fill="white"/>
</clipPath>
</defs>
</svg>
