<svg width="30" height="30" viewBox="0 0 30 30" fill="none" xmlns="http://www.w3.org/2000/svg">
<g clip-path="url(#clip0)">
<path d="M0 15C0 6.71573 6.71573 0 15 0V0C23.2843 0 30 6.71573 30 15V15C30 23.2843 23.2843 30 15 30V30C6.71573 30 0 23.2843 0 15V15Z" fill="url(#paint0_linear)"/>
<path d="M18.1998 17.6V19.8C18.1998 20.0178 14.9998 20.6772 14.9998 20.6772C14.9998 20.6772 11.7998 20.1107 11.7998 19.8C11.7998 19.212 11.8118 16.26 11.7998 13.5188C10.3666 11.6611 10.3666 10.5 11.4998 9.3C12.633 8.1 20.6998 7.5 20.6998 7.5C20.6998 7.5 21.305 13.321 21.3998 14.9C21.4379 15.535 21.8498 17.6 20.2498 17.6H18.1998Z" fill="url(#paint1_linear)"/>
<path d="M18.2 17.4123V18.616C16.0567 18.2342 14.8234 17.4289 14.5 16.2C15.4333 16.8333 16.6333 17.2333 18.1 17.4C18.1333 17.4038 18.1667 17.4079 18.2 17.4123Z" fill="#DE6530"/>
<path d="M25.5 24.3309C26.1347 25.6214 26.6347 27.7547 27 30.7309H3C3.36547 27.7544 3.86547 25.6211 4.5 24.3309C5.1324 23.045 11 20.57 11 20.57L19 20.5693C19 20.5693 24.8688 23.0476 25.5 24.3309Z" fill="url(#paint2_linear)"/>
<path d="M15.6998 21.2L16.1998 30.3999H13.7998L14.2998 21.2C14.2998 21.2 14.7665 20.7 14.9998 20.7C15.2331 20.7 15.6998 21.2 15.6998 21.2Z" fill="url(#paint3_linear)"/>
<path d="M15.8012 23.0618L14.2476 22.1642L14.3 21.2C14.6111 20.8666 14.8444 20.7 15 20.7C15.1555 20.7 15.3888 20.8666 15.7 21.2L15.8012 23.0618Z" fill="#D24B24"/>
<path d="M14.9999 20.6991L13.9999 22.5L10.8999 20.6L11.7999 19.3L14.9999 20.4821L18.1999 19.3L19.0999 20.6L15.9999 22.5L14.9999 20.6991Z" fill="white"/>
<path d="M13.1019 10.5206C12.7839 10.2475 12.3975 10.0636 11.8513 10.3474C10.5564 11.0197 11.4158 13.6135 12.8649 13.5629C13.3649 13.5455 13.1357 14.5419 11.7999 15.2C11.7999 14.15 10.1999 11.55 10.0599 9.18282C8.4499 8.58332 8.8499 6.18462 9.9552 6.18462C9.7788 3.98552 13.2999 2.84972 14.6633 4.11162C16.0499 2.44972 19.5499 3.29972 19.7612 4.74152C22.1679 3.45682 23.7499 7.14972 21.4964 8.58332C20.5691 9.17332 18.3999 9.39782 15.2686 9.39782C13.766 9.39782 14.6301 12.9148 15.0999 14.05C15.6999 15.5 19.0499 15.7 20.0999 15.55C20.9199 15.4329 21.3499 15.1 21.3999 14.9C22.1499 16.9 21.1999 18.1 19.6999 18.1C17.1499 18.1 14.5999 17.35 14.1999 15.5C13.8815 14.0277 13.899 11.6516 13.1019 10.5206Z" fill="url(#paint4_linear)"/>
</g>
<defs>
<linearGradient id="paint0_linear" x1="15" y1="30" x2="15" y2="0" gradientUnits="userSpaceOnUse">
<stop stop-color="#FFC9B3"/>
<stop offset="1" stop-color="#FFD2C2"/>
</linearGradient>
<linearGradient id="paint1_linear" x1="16.0795" y1="7.5" x2="16.0795" y2="20.6772" gradientUnits="userSpaceOnUse">
<stop stop-color="#E6864E"/>
<stop offset="1" stop-color="#EB965E"/>
</linearGradient>
<linearGradient id="paint2_linear" x1="15" y1="20.5693" x2="15" y2="30.7309" gradientUnits="userSpaceOnUse">
<stop stop-color="#130027"/>
<stop offset="1" stop-color="#130017"/>
</linearGradient>
<linearGradient id="paint3_linear" x1="14.9998" y1="30.4" x2="14.9998" y2="20.7" gradientUnits="userSpaceOnUse">
<stop stop-color="#E6864E"/>
<stop offset="1" stop-color="#E67240"/>
</linearGradient>
<linearGradient id="paint4_linear" x1="15.7847" y1="3.19946" x2="15.7847" y2="18.1" gradientUnits="userSpaceOnUse">
<stop stop-color="#130027"/>
<stop offset="1" stop-color="#130017"/>
</linearGradient>
<clipPath id="clip0">
<path d="M0 15C0 6.71573 6.71573 0 15 0V0C23.2843 0 30 6.71573 30 15V15C30 23.2843 23.2843 30 15 30V30C6.71573 30 0 23.2843 0 15V15Z" fill="white"/>
</clipPath>
</defs>
</svg>
