<svg width="70" height="61" viewBox="0 0 70 61" fill="none" xmlns="http://www.w3.org/2000/svg">
<g clip-path="url(#clip0)">
<path d="M0 31C0 14.4315 13.4315 1 30 1V1C46.5685 1 60 14.4315 60 31V31C60 47.5685 46.5685 61 30 61V61C13.4315 61 0 47.5685 0 31V31Z" fill="url(#paint0_linear)"/>
<path d="M48.3999 49.6C49.8665 52.4 50.5999 62.6 50.5999 62.6H9.3999C9.3999 62.6 10.1333 52.4 11.5999 49.6C13.7999 45.4 29.9999 40 29.9999 40C29.9999 40 46.1999 45.4 48.3999 49.6Z" fill="url(#paint1_linear)"/>
<path opacity="0.4" d="M48.7998 60.8001C48.7998 60.5628 48.8702 60.3308 49.002 60.1334C49.1339 59.9361 49.3213 59.7823 49.5406 59.6914C49.7599 59.6006 50.0011 59.5769 50.2339 59.6232C50.4667 59.6695 50.6805 59.7837 50.8483 59.9516C51.0162 60.1194 51.1304 60.3332 51.1767 60.566C51.2231 60.7988 51.1993 61.04 51.1085 61.2593C51.0176 61.4786 50.8638 61.666 50.6665 61.7979C50.4692 61.9297 50.2371 62.0001 49.9998 62.0001C49.6815 62.0001 49.3763 61.8737 49.1513 61.6486C48.9262 61.4236 48.7998 61.1184 48.7998 60.8001V60.8001ZM40.7998 60.8001C40.7998 60.5628 40.8702 60.3308 41.002 60.1334C41.1339 59.9361 41.3213 59.7823 41.5406 59.6914C41.7599 59.6006 42.0011 59.5769 42.2339 59.6232C42.4667 59.6695 42.6805 59.7837 42.8483 59.9516C43.0162 60.1194 43.1304 60.3332 43.1767 60.566C43.2231 60.7988 43.1993 61.04 43.1085 61.2593C43.0176 61.4786 42.8638 61.666 42.6665 61.7979C42.4692 61.9297 42.2371 62.0001 41.9998 62.0001C41.6815 62.0001 41.3763 61.8737 41.1513 61.6486C40.9262 61.4236 40.7998 61.1184 40.7998 60.8001ZM32.7998 60.8001C32.7998 60.5628 32.8702 60.3308 33.002 60.1334C33.1339 59.9361 33.3213 59.7823 33.5406 59.6914C33.7599 59.6006 34.0011 59.5769 34.2339 59.6232C34.4667 59.6695 34.6805 59.7837 34.8483 59.9516C35.0162 60.1194 35.1304 60.3332 35.1767 60.566C35.2231 60.7988 35.1993 61.04 35.1085 61.2593C35.0176 61.4786 34.8638 61.666 34.6665 61.7979C34.4692 61.9297 34.2371 62.0001 33.9998 62.0001C33.6815 62.0001 33.3763 61.8737 33.1513 61.6486C32.9262 61.4236 32.7998 61.1184 32.7998 60.8001ZM24.7998 60.8001C24.7998 60.5628 24.8702 60.3308 25.002 60.1334C25.1339 59.9361 25.3213 59.7823 25.5406 59.6914C25.7599 59.6006 26.0011 59.5769 26.2339 59.6232C26.4667 59.6695 26.6805 59.7837 26.8483 59.9516C27.0162 60.1194 27.1304 60.3332 27.1767 60.566C27.2231 60.7988 27.1993 61.04 27.1085 61.2593C27.0176 61.4786 26.8638 61.666 26.6665 61.7979C26.4692 61.9297 26.2371 62.0001 25.9998 62.0001C25.6815 62.0001 25.3763 61.8737 25.1513 61.6486C24.9262 61.4236 24.7998 61.1184 24.7998 60.8001ZM16.7998 60.8001C16.7998 60.5628 16.8702 60.3308 17.002 60.1334C17.1339 59.9361 17.3213 59.7823 17.5406 59.6914C17.7599 59.6006 18.0011 59.5769 18.2339 59.6232C18.4667 59.6695 18.6805 59.7837 18.8483 59.9516C19.0162 60.1194 19.1304 60.3332 19.1767 60.566C19.2231 60.7988 19.1993 61.04 19.1085 61.2593C19.0176 61.4786 18.8638 61.666 18.6665 61.7979C18.4692 61.9297 18.2371 62.0001 17.9998 62.0001C17.6815 62.0001 17.3763 61.8737 17.1513 61.6486C16.9262 61.4236 16.7998 61.1184 16.7998 60.8001ZM8.7998 60.8001C8.7998 60.5628 8.87018 60.3308 9.00204 60.1334C9.1339 59.9361 9.32131 59.7823 9.54058 59.6914C9.75986 59.6006 10.0011 59.5769 10.2339 59.6232C10.4667 59.6695 10.6805 59.7837 10.8483 59.9516C11.0162 60.1194 11.1304 60.3332 11.1767 60.566C11.223 60.7988 11.1993 61.04 11.1085 61.2593C11.0176 61.4786 10.8638 61.666 10.6665 61.7979C10.4692 61.9297 10.2371 62.0001 9.9998 62.0001C9.68154 62.0001 9.37632 61.8737 9.15128 61.6486C8.92623 61.4236 8.7998 61.1184 8.7998 60.8001V60.8001ZM44.7998 56.8001C44.7998 56.5628 44.8702 56.3308 45.002 56.1334C45.1339 55.9361 45.3213 55.7823 45.5406 55.6914C45.7599 55.6006 46.0011 55.5769 46.2339 55.6232C46.4667 55.6695 46.6805 55.7837 46.8483 55.9516C47.0162 56.1194 47.1304 56.3332 47.1767 56.566C47.2231 56.7988 47.1993 57.04 47.1085 57.2593C47.0176 57.4786 46.8638 57.666 46.6665 57.7979C46.4692 57.9297 46.2371 58.0001 45.9998 58.0001C45.6815 58.0001 45.3763 57.8737 45.1513 57.6486C44.9262 57.4236 44.7998 57.1184 44.7998 56.8001ZM36.7998 56.8001C36.7998 56.5628 36.8702 56.3308 37.002 56.1334C37.1339 55.9361 37.3213 55.7823 37.5406 55.6914C37.7599 55.6006 38.0011 55.5769 38.2339 55.6232C38.4667 55.6695 38.6805 55.7837 38.8483 55.9516C39.0162 56.1194 39.1304 56.3332 39.1767 56.566C39.2231 56.7988 39.1993 57.04 39.1085 57.2593C39.0176 57.4786 38.8638 57.666 38.6665 57.7979C38.4692 57.9297 38.2371 58.0001 37.9998 58.0001C37.6815 58.0001 37.3763 57.8737 37.1513 57.6486C36.9262 57.4236 36.7998 57.1184 36.7998 56.8001ZM28.7998 56.8001C28.7998 56.5628 28.8702 56.3308 29.002 56.1334C29.1339 55.9361 29.3213 55.7823 29.5406 55.6914C29.7599 55.6006 30.0011 55.5769 30.2339 55.6232C30.4667 55.6695 30.6805 55.7837 30.8483 55.9516C31.0162 56.1194 31.1304 56.3332 31.1767 56.566C31.2231 56.7988 31.1993 57.04 31.1085 57.2593C31.0176 57.4786 30.8638 57.666 30.6665 57.7979C30.4692 57.9297 30.2371 58.0001 29.9998 58.0001C29.6815 58.0001 29.3763 57.8737 29.1513 57.6486C28.9262 57.4236 28.7998 57.1184 28.7998 56.8001V56.8001ZM20.7998 56.8001C20.7998 56.5628 20.8702 56.3308 21.002 56.1334C21.1339 55.9361 21.3213 55.7823 21.5406 55.6914C21.7599 55.6006 22.0011 55.5769 22.2339 55.6232C22.4667 55.6695 22.6805 55.7837 22.8483 55.9516C23.0162 56.1194 23.1304 56.3332 23.1767 56.566C23.2231 56.7988 23.1993 57.04 23.1085 57.2593C23.0176 57.4786 22.8638 57.666 22.6665 57.7979C22.4692 57.9297 22.2371 58.0001 21.9998 58.0001C21.6815 58.0001 21.3763 57.8737 21.1513 57.6486C20.9262 57.4236 20.7998 57.1184 20.7998 56.8001ZM12.7998 56.8001C12.7998 56.5628 12.8702 56.3308 13.002 56.1334C13.1339 55.9361 13.3213 55.7823 13.5406 55.6914C13.7599 55.6006 14.0011 55.5769 14.2339 55.6232C14.4667 55.6695 14.6805 55.7837 14.8483 55.9516C15.0162 56.1194 15.1304 56.3332 15.1767 56.566C15.223 56.7988 15.1993 57.04 15.1085 57.2593C15.0176 57.4786 14.8638 57.666 14.6665 57.7979C14.4692 57.9297 14.2371 58.0001 13.9998 58.0001C13.6815 58.0001 13.3763 57.8737 13.1513 57.6486C12.9262 57.4236 12.7998 57.1184 12.7998 56.8001ZM48.7998 52.8001C48.7998 52.5628 48.8702 52.3308 49.002 52.1334C49.1339 51.9361 49.3213 51.7823 49.5406 51.6914C49.7599 51.6006 50.0011 51.5769 50.2339 51.6232C50.4667 51.6695 50.6805 51.7837 50.8483 51.9516C51.0162 52.1194 51.1304 52.3332 51.1767 52.566C51.2231 52.7988 51.1993 53.04 51.1085 53.2593C51.0176 53.4786 50.8638 53.666 50.6665 53.7979C50.4692 53.9297 50.2371 54.0001 49.9998 54.0001C49.6815 54.0001 49.3763 53.8737 49.1513 53.6486C48.9262 53.4236 48.7998 53.1184 48.7998 52.8001V52.8001ZM40.7998 52.8001C40.7998 52.5628 40.8702 52.3308 41.002 52.1334C41.1339 51.9361 41.3213 51.7823 41.5406 51.6914C41.7599 51.6006 42.0011 51.5769 42.2339 51.6232C42.4667 51.6695 42.6805 51.7837 42.8483 51.9516C43.0162 52.1194 43.1304 52.3332 43.1767 52.566C43.2231 52.7988 43.1993 53.04 43.1085 53.2593C43.0176 53.4786 42.8638 53.666 42.6665 53.7979C42.4692 53.9297 42.2371 54.0001 41.9998 54.0001C41.6815 54.0001 41.3763 53.8737 41.1513 53.6486C40.9262 53.4236 40.7998 53.1184 40.7998 52.8001ZM32.7998 52.8001C32.7998 52.5628 32.8702 52.3308 33.002 52.1334C33.1339 51.9361 33.3213 51.7823 33.5406 51.6914C33.7599 51.6006 34.0011 51.5769 34.2339 51.6232C34.4667 51.6695 34.6805 51.7837 34.8483 51.9516C35.0162 52.1194 35.1304 52.3332 35.1767 52.566C35.2231 52.7988 35.1993 53.04 35.1085 53.2593C35.0176 53.4786 34.8638 53.666 34.6665 53.7979C34.4692 53.9297 34.2371 54.0001 33.9998 54.0001C33.6815 54.0001 33.3763 53.8737 33.1513 53.6486C32.9262 53.4236 32.7998 53.1184 32.7998 52.8001ZM24.7998 52.8001C24.7998 52.5628 24.8702 52.3308 25.002 52.1334C25.1339 51.9361 25.3213 51.7823 25.5406 51.6914C25.7599 51.6006 26.0011 51.5769 26.2339 51.6232C26.4667 51.6695 26.6805 51.7837 26.8483 51.9516C27.0162 52.1194 27.1304 52.3332 27.1767 52.566C27.2231 52.7988 27.1993 53.04 27.1085 53.2593C27.0176 53.4786 26.8638 53.666 26.6665 53.7979C26.4692 53.9297 26.2371 54.0001 25.9998 54.0001C25.6815 54.0001 25.3763 53.8737 25.1513 53.6486C24.9262 53.4236 24.7998 53.1184 24.7998 52.8001ZM16.7998 52.8001C16.7998 52.5628 16.8702 52.3308 17.002 52.1334C17.1339 51.9361 17.3213 51.7823 17.5406 51.6914C17.7599 51.6006 18.0011 51.5769 18.2339 51.6232C18.4667 51.6695 18.6805 51.7837 18.8483 51.9516C19.0162 52.1194 19.1304 52.3332 19.1767 52.566C19.2231 52.7988 19.1993 53.04 19.1085 53.2593C19.0176 53.4786 18.8638 53.666 18.6665 53.7979C18.4692 53.9297 18.2371 54.0001 17.9998 54.0001C17.6815 54.0001 17.3763 53.8737 17.1513 53.6486C16.9262 53.4236 16.7998 53.1184 16.7998 52.8001ZM8.7998 52.8001C8.7998 52.5628 8.87018 52.3308 9.00204 52.1334C9.1339 51.9361 9.32131 51.7823 9.54058 51.6914C9.75986 51.6006 10.0011 51.5769 10.2339 51.6232C10.4667 51.6695 10.6805 51.7837 10.8483 51.9516C11.0162 52.1194 11.1304 52.3332 11.1767 52.566C11.223 52.7988 11.1993 53.04 11.1085 53.2593C11.0176 53.4786 10.8638 53.666 10.6665 53.7979C10.4692 53.9297 10.2371 54.0001 9.9998 54.0001C9.68154 54.0001 9.37632 53.8737 9.15128 53.6486C8.92623 53.4236 8.7998 53.1184 8.7998 52.8001V52.8001ZM44.7998 48.8001C44.7998 48.5628 44.8702 48.3308 45.002 48.1334C45.1339 47.9361 45.3213 47.7823 45.5406 47.6914C45.7599 47.6006 46.0011 47.5769 46.2339 47.6232C46.4667 47.6695 46.6805 47.7837 46.8483 47.9516C47.0162 48.1194 47.1304 48.3332 47.1767 48.566C47.2231 48.7988 47.1993 49.04 47.1085 49.2593C47.0176 49.4786 46.8638 49.666 46.6665 49.7979C46.4692 49.9297 46.2371 50.0001 45.9998 50.0001C45.6815 50.0001 45.3763 49.8737 45.1513 49.6486C44.9262 49.4236 44.7998 49.1184 44.7998 48.8001ZM36.7998 48.8001C36.7998 48.5628 36.8702 48.3308 37.002 48.1334C37.1339 47.9361 37.3213 47.7823 37.5406 47.6914C37.7599 47.6006 38.0011 47.5769 38.2339 47.6232C38.4667 47.6695 38.6805 47.7837 38.8483 47.9516C39.0162 48.1194 39.1304 48.3332 39.1767 48.566C39.2231 48.7988 39.1993 49.04 39.1085 49.2593C39.0176 49.4786 38.8638 49.666 38.6665 49.7979C38.4692 49.9297 38.2371 50.0001 37.9998 50.0001C37.6815 50.0001 37.3763 49.8737 37.1513 49.6486C36.9262 49.4236 36.7998 49.1184 36.7998 48.8001ZM28.7998 48.8001C28.7998 48.5628 28.8702 48.3308 29.002 48.1334C29.1339 47.9361 29.3213 47.7823 29.5406 47.6914C29.7599 47.6006 30.0011 47.5769 30.2339 47.6232C30.4667 47.6695 30.6805 47.7837 30.8483 47.9516C31.0162 48.1194 31.1304 48.3332 31.1767 48.566C31.2231 48.7988 31.1993 49.04 31.1085 49.2593C31.0176 49.4786 30.8638 49.666 30.6665 49.7979C30.4692 49.9297 30.2371 50.0001 29.9998 50.0001C29.6815 50.0001 29.3763 49.8737 29.1513 49.6486C28.9262 49.4236 28.7998 49.1184 28.7998 48.8001V48.8001ZM20.7998 48.8001C20.7998 48.5628 20.8702 48.3308 21.002 48.1334C21.1339 47.9361 21.3213 47.7823 21.5406 47.6914C21.7599 47.6006 22.0011 47.5769 22.2339 47.6232C22.4667 47.6695 22.6805 47.7837 22.8483 47.9516C23.0162 48.1194 23.1304 48.3332 23.1767 48.566C23.2231 48.7988 23.1993 49.04 23.1085 49.2593C23.0176 49.4786 22.8638 49.666 22.6665 49.7979C22.4692 49.9297 22.2371 50.0001 21.9998 50.0001C21.6815 50.0001 21.3763 49.8737 21.1513 49.6486C20.9262 49.4236 20.7998 49.1184 20.7998 48.8001ZM12.7998 48.8001C12.7998 48.5628 12.8702 48.3308 13.002 48.1334C13.1339 47.9361 13.3213 47.7823 13.5406 47.6914C13.7599 47.6006 14.0011 47.5769 14.2339 47.6232C14.4667 47.6695 14.6805 47.7837 14.8483 47.9516C15.0162 48.1194 15.1304 48.3332 15.1767 48.566C15.223 48.7988 15.1993 49.04 15.1085 49.2593C15.0176 49.4786 14.8638 49.666 14.6665 49.7979C14.4692 49.9297 14.2371 50.0001 13.9998 50.0001C13.6815 50.0001 13.3763 49.8737 13.1513 49.6486C12.9262 49.4236 12.7998 49.1184 12.7998 48.8001ZM48.7998 44.8001C48.7998 44.5628 48.8702 44.3308 49.002 44.1334C49.1339 43.9361 49.3213 43.7823 49.5406 43.6914C49.7599 43.6006 50.0011 43.5769 50.2339 43.6232C50.4667 43.6695 50.6805 43.7837 50.8483 43.9516C51.0162 44.1194 51.1304 44.3332 51.1767 44.566C51.2231 44.7988 51.1993 45.04 51.1085 45.2593C51.0176 45.4786 50.8638 45.666 50.6665 45.7979C50.4692 45.9297 50.2371 46.0001 49.9998 46.0001C49.6815 46.0001 49.3763 45.8737 49.1513 45.6486C48.9262 45.4236 48.7998 45.1184 48.7998 44.8001V44.8001ZM40.7998 44.8001C40.7998 44.5628 40.8702 44.3308 41.002 44.1334C41.1339 43.9361 41.3213 43.7823 41.5406 43.6914C41.7599 43.6006 42.0011 43.5769 42.2339 43.6232C42.4667 43.6695 42.6805 43.7837 42.8483 43.9516C43.0162 44.1194 43.1304 44.3332 43.1767 44.566C43.2231 44.7988 43.1993 45.04 43.1085 45.2593C43.0176 45.4786 42.8638 45.666 42.6665 45.7979C42.4692 45.9297 42.2371 46.0001 41.9998 46.0001C41.6815 46.0001 41.3763 45.8737 41.1513 45.6486C40.9262 45.4236 40.7998 45.1184 40.7998 44.8001V44.8001ZM16.7998 44.8001C16.7998 44.5628 16.8702 44.3308 17.002 44.1334C17.1339 43.9361 17.3213 43.7823 17.5406 43.6914C17.7599 43.6006 18.0011 43.5769 18.2339 43.6232C18.4667 43.6695 18.6805 43.7837 18.8483 43.9516C19.0162 44.1194 19.1304 44.3332 19.1767 44.566C19.2231 44.7988 19.1993 45.04 19.1085 45.2593C19.0176 45.4786 18.8638 45.666 18.6665 45.7979C18.4692 45.9297 18.2371 46.0001 17.9998 46.0001C17.6815 46.0001 17.3763 45.8737 17.1513 45.6486C16.9262 45.4236 16.7998 45.1184 16.7998 44.8001V44.8001ZM8.7998 44.8001C8.7998 44.5628 8.87018 44.3308 9.00204 44.1334C9.1339 43.9361 9.32131 43.7823 9.54058 43.6914C9.75986 43.6006 10.0011 43.5769 10.2339 43.6232C10.4667 43.6695 10.6805 43.7837 10.8483 43.9516C11.0162 44.1194 11.1304 44.3332 11.1767 44.566C11.223 44.7988 11.1993 45.04 11.1085 45.2593C11.0176 45.4786 10.8638 45.666 10.6665 45.7979C10.4692 45.9297 10.2371 46.0001 9.9998 46.0001C9.68154 46.0001 9.37632 45.8737 9.15128 45.6486C8.92623 45.4236 8.7998 45.1184 8.7998 44.8001V44.8001Z" fill="#13001E"/>
<path d="M32.1726 11.5401C31.3726 8.04008 35.166 5.35428 39.0726 7.19808C48.2726 11.5401 42.7998 17.6001 39.3998 17.2001C35.9998 16.8001 32.9726 15.0401 32.1726 11.5401Z" fill="url(#paint2_linear)"/>
<g style="mix-blend-mode:multiply" opacity="0.6">
<path d="M35.5 12.1001C35.5 12.1001 42.3 16.5001 44 14.1001C44.1754 15.1023 43.3688 17.9331 42.1 17.9001C38.3046 17.8013 35.5 12.1001 35.5 12.1001Z" fill="#E0713F"/>
</g>
<path d="M34.3998 33.6C30.1032 35.6642 29.4764 35.5536 19.9997 27.8C5.69975 16.1 19.1997 5.40002 33.6998 11.1C49.3998 18 44.14 28.9214 34.3998 33.6Z" fill="url(#paint3_linear)"/>
<path d="M34.7999 41.8C33.3333 44.2 26.6665 44.2 25.1999 41.8V37.8C25.1999 37.8 24.5473 37.82 24.0999 37.8C19.4217 37.6 17.8585 30.0746 18.5927 22.5476C19.1303 17.0352 23.7999 24.6 31.3999 19.3C31.0999 25.1 33.5999 24.5 34.6999 23.8C39.6999 21.5 39.7417 30.9284 34.7999 30.2V41.8Z" fill="url(#paint4_linear)"/>
<path d="M25.2002 37.7991C27.8992 37.5987 31.9239 34.7793 31.9239 34.7793C31.9239 34.7793 29.9986 38.8981 25.2004 39.5983L25.2002 37.7991Z" fill="#FFBB94"/>
<path d="M34.7999 41.292V40C35.1667 40 36.2169 40.8664 36.7571 41.6C38.8923 44.5 36.5239 47.1 34.5923 47.1C32.1551 47.1 30.5399 45.0636 29.9999 44.084C29.4599 45.064 27.8447 47.1 25.4075 47.1C23.4759 47.1 21.1075 44.5 23.2427 41.6C23.7829 40.8664 24.8331 40 25.1999 40V41.292C25.1999 42.8216 28.5479 43.5296 29.9933 43.595C31.3615 43.5296 34.7999 42.8216 34.7999 41.292Z" fill="#FFF9F5"/>
<path d="M32.5179 15.2858C29.3179 23.2858 31.1179 27.1858 33.6179 31.8858C36.1179 36.5858 33.0179 40.9858 33.0179 40.9858C33.0179 40.9858 36.6179 38.6858 36.6179 33.5858C36.6179 28.4858 33.0179 25.2858 36.0179 21.0858C39.0179 16.8858 35.7179 7.28576 32.5179 15.2858Z" fill="url(#paint5_linear)"/>
</g>
<circle cx="58" cy="12" r="9" fill="#E8E8E8" stroke="white" stroke-width="1.2"/>
<path d="M58 15L58 9" stroke="#2C2C2C" stroke-width="1.2" stroke-linecap="square"/>
<path d="M61 12L55 12" stroke="#2C2C2C" stroke-width="1.2" stroke-linecap="square"/>
<defs>
<linearGradient id="paint0_linear" x1="30" y1="1" x2="30" y2="61" gradientUnits="userSpaceOnUse">
<stop stop-color="#1D0024"/>
<stop offset="1" stop-color="#100014"/>
</linearGradient>
<linearGradient id="paint1_linear" x1="29.9999" y1="40" x2="29.9999" y2="62.6" gradientUnits="userSpaceOnUse">
<stop stop-color="#806A6A"/>
<stop offset="1" stop-color="#665654"/>
</linearGradient>
<linearGradient id="paint2_linear" x1="38.1041" y1="17.2189" x2="38.1041" y2="6.59912" gradientUnits="userSpaceOnUse">
<stop stop-color="#E6864E"/>
<stop offset="1" stop-color="#E67240"/>
</linearGradient>
<linearGradient id="paint3_linear" x1="28.7886" y1="34.7368" x2="28.7886" y2="9.52148" gradientUnits="userSpaceOnUse">
<stop stop-color="#814A2B"/>
<stop offset="1" stop-color="#974A28"/>
</linearGradient>
<linearGradient id="paint4_linear" x1="28.4491" y1="19.3" x2="28.4491" y2="43.6" gradientUnits="userSpaceOnUse">
<stop stop-color="#FFD4B3"/>
<stop offset="1" stop-color="#FFDCC2"/>
</linearGradient>
<linearGradient id="paint5_linear" x1="33.9983" y1="40.9858" x2="33.9983" y2="12.2002" gradientUnits="userSpaceOnUse">
<stop stop-color="#E6864E"/>
<stop offset="1" stop-color="#E57442"/>
</linearGradient>
<clipPath id="clip0">
<path d="M0 31C0 14.4315 13.4315 1 30 1V1C46.5685 1 60 14.4315 60 31V31C60 47.5685 46.5685 61 30 61V61C13.4315 61 0 47.5685 0 31V31Z" fill="white"/>
</clipPath>
</defs>
</svg>
